<?xml version="1.0" encoding="utf-8"?>
<!-- Generator: Adobe Illustrator 24.1.1, SVG Export Plug-In . SVG Version: 6.00 Build 0)  -->
<svg version="1.1" id="Layer_1" xmlns="http://www.w3.org/2000/svg" xmlns:xlink="http://www.w3.org/1999/xlink" x="0px" y="0px"
	 viewBox="0 0 132 26" style="enable-background:new 0 0 132 26;" xml:space="preserve">
<g>
	<g>
		<path d="M2.4,7.9H0.8V7.3c0.5-0.1,1.1-0.4,1.7-0.8c0.6-0.4,1.1-0.8,1.7-1.3c0.5-0.5,1-1,1.3-1.5c0.4-0.5,0.6-0.9,0.8-1.3h0.7V7H10
			L9.7,7.9H6.9v6.4l0,1.2c0,0.7,0.1,1.2,0.4,1.5c0.3,0.3,0.7,0.5,1.1,0.5c0.6,0,1.1-0.3,1.3-0.8c0.3-0.5,0.4-1.1,0.4-1.7h0.3
			c0,0.9-0.3,1.7-0.8,2.3c-0.5,0.7-1.6,1-3.3,1c-1.1,0-2.1-0.3-2.9-0.8c-0.8-0.6-1.3-1.4-1.3-2.4V7.9z"/>
		<path d="M19.9,10l-0.5-1.4c-0.1-0.3-0.2-0.6-0.4-0.8s-0.3-0.3-0.5-0.4l-0.5,0V7h7.2v0.4h-0.4c-0.1,0-0.3,0-0.5,0.1
			c-0.2,0-0.3,0.2-0.3,0.6c0,0.1,0,0.2,0,0.3s0.1,0.4,0.2,0.9c0.1,0.5,0.4,1.2,0.7,2.1c0.3,0.9,0.6,1.7,0.8,2.2l1.6-4.2
			c0.2-0.6,0.3-1.1,0.3-1.3c0-0.2-0.1-0.4-0.2-0.4c-0.1-0.1-0.3-0.1-0.4-0.1c-0.2,0-0.3-0.1-0.5-0.1c-0.1,0-0.3,0-0.4,0V7h4v0.4
			l-0.9,0.1c-0.5,0.1-0.9,0.6-1.3,1.6l-3.5,9.2h-1.7l-2.7-7.7l-3,7.7h-1.7c-0.2-0.7-0.5-1.4-0.7-2.1c-0.3-0.7-0.7-2-1.4-3.8
			s-1.1-3-1.3-3.6c-0.2-0.5-0.4-0.9-0.5-1c-0.1-0.1-0.2-0.2-0.4-0.3c-0.2,0-0.4-0.1-0.6-0.1c-0.2,0-0.3,0-0.5,0V7h7.4v0.4h-0.2
			c-0.1,0-0.2,0-0.4,0.1s-0.3,0.2-0.3,0.6c0,0.1,0,0.2,0,0.3c0,0.1,0.1,0.4,0.2,0.7c0.1,0.4,0.3,1,0.6,1.9c0.3,0.9,0.6,1.8,0.9,2.7
			L19.9,10z"/>
		<path d="M41.7,14.7c-0.4,1.2-1.1,2.1-2.1,2.8c-1,0.7-2.1,1-3.4,1c-1.9,0-3.4-0.5-4.6-1.5c-1.2-1-1.8-2.5-1.8-4.3
			c0-1.7,0.6-3.1,1.9-4.2c1.2-1.1,2.7-1.6,4.4-1.6c1.8,0,3.2,0.5,4.1,1.5c1,1,1.4,2.3,1.4,3.7h-7.2c0,0.6,0,1.1,0.1,1.7
			c0.1,0.6,0.2,1.2,0.5,1.7c0.2,0.5,0.6,1,1,1.3c0.4,0.3,1,0.5,1.7,0.5c1,0,1.7-0.3,2.3-0.8c0.6-0.5,1-1.2,1.3-2L41.7,14.7z
			 M37.5,11.6c0-0.2,0-0.4,0-0.6c0-0.2,0-0.5,0-0.9c0-1-0.1-1.7-0.4-2.2c-0.2-0.5-0.6-0.7-1.2-0.7c-0.5,0-0.8,0.2-1,0.7
			c-0.2,0.5-0.3,1.2-0.4,2.2l0,1.5H37.5z"/>
		<path d="M51.2,10.5l0-1c0-1.2-0.4-1.8-1.3-1.8c-0.5,0-0.9,0.2-1.2,0.5c-0.2,0.3-0.4,0.7-0.5,1.1v6l0,1.1c0,0.6,0.1,1.1,0.2,1.2
			c0.1,0.2,0.5,0.3,1,0.3v0.4h-7.3v-0.4l0.6,0c0.5,0,0.7-0.2,0.8-0.3c0.1-0.2,0.1-0.5,0.1-1.1l0-1.1V9.6l0-1c0-0.4-0.1-0.7-0.1-0.8
			s-0.3-0.3-0.8-0.4l-0.5,0V7h6v1.8c0.2-0.4,0.5-0.9,0.9-1.3c0.4-0.4,1.3-0.7,2.6-0.7c1.1,0,2.1,0.3,2.9,0.9
			c0.8,0.6,1.2,1.4,1.2,2.2v5.3l0,1.1c0,0.6,0,0.9,0.1,1.1c0.1,0.2,0.4,0.3,0.8,0.3l0.5,0v0.4H50v-0.4c0.6,0,0.9-0.1,1-0.3
			c0.1-0.2,0.2-0.6,0.2-1.2l0-1.1V10.5z"/>
		<path d="M58.8,7.9h-1.6V7.3c0.5-0.1,1.1-0.4,1.7-0.8c0.6-0.4,1.1-0.8,1.7-1.3c0.5-0.5,1-1,1.3-1.5c0.4-0.5,0.6-0.9,0.8-1.3h0.7V7
			h3.1l-0.3,0.9h-2.7v6.4l0,1.2c0,0.7,0.1,1.2,0.4,1.5c0.3,0.3,0.7,0.5,1.1,0.5c0.6,0,1.1-0.3,1.3-0.8c0.3-0.5,0.4-1.1,0.4-1.7H67
			c0,0.9-0.3,1.7-0.8,2.3c-0.5,0.7-1.6,1-3.3,1c-1.1,0-2.1-0.3-2.9-0.8c-0.8-0.6-1.3-1.4-1.3-2.4V7.9z"/>
		<path d="M68.2,8.6C68,8.3,67.8,8,67.7,7.8c-0.1-0.2-0.3-0.3-0.5-0.3l-0.9-0.1V7H74v0.4h-0.4c-0.1,0-0.3,0-0.5,0.1S72.8,7.7,72.8,8
			c0,0.1,0,0.3,0.1,0.5C73,8.6,73.1,8.8,73.1,9l1.8,4.4c0.2-0.4,0.4-1,0.8-1.8c0.3-0.9,0.6-1.6,0.8-2.2c0.2-0.6,0.3-1,0.3-1.3
			c0-0.2,0-0.3-0.1-0.4c-0.1-0.1-0.3-0.1-0.6-0.2l-0.8,0V7h4v0.4c-0.1,0-0.2,0-0.3,0c-0.1,0-0.3,0-0.6,0.1c-0.3,0-0.5,0.2-0.7,0.4
			s-0.5,1-1,2.3c-0.5,1.3-1.1,2.7-1.7,4.1c-0.6,1.5-1.2,3-2,4.5c-0.7,1.6-1.4,2.7-2.1,3.5c-0.6,0.8-1.5,1.2-2.6,1.2
			c-0.6,0-1.2-0.2-1.7-0.6c-0.5-0.4-0.8-1-0.8-1.6c0-0.6,0.2-1.2,0.6-1.6c0.4-0.4,1-0.7,1.6-0.7c0.7,0,1.2,0.2,1.6,0.6
			c0.4,0.4,0.6,0.9,0.6,1.4c0,0.5-0.1,1-0.4,1.3c-0.3,0.3-0.4,0.5-0.4,0.6c0.1,0,0.3,0,0.4,0c0.3-0.2,0.7-0.5,1-0.9
			c0.3-0.4,0.6-0.9,0.9-1.4c0.2-0.5,0.5-1,0.8-1.7c-0.3-0.8-0.8-1.8-1.3-3c-0.5-1.2-1.1-2.5-1.7-4C69,10.5,68.5,9.4,68.2,8.6z"/>
		<path d="M97.5,12.6c0,1.7-0.6,3-1.9,4.2s-2.7,1.7-4.5,1.7c-1.8,0-3.3-0.6-4.5-1.7s-1.8-2.5-1.8-4.2c0-1.7,0.6-3,1.8-4.2
			c1.2-1.1,2.7-1.7,4.5-1.7c1.7,0,3.2,0.5,4.5,1.6C96.9,9.6,97.5,10.9,97.5,12.6z M92.8,12.6c0-0.2,0-0.7,0-1.3c0-0.7,0-1.1,0-1.2
			c0-0.8-0.1-1.5-0.4-2.1c-0.3-0.5-0.7-0.8-1.2-0.8c-0.5,0-0.9,0.3-1.2,0.9c-0.3,0.6-0.4,1.3-0.4,2.1c0,0.3,0,0.7,0,1.1
			c0,0.4,0,0.9-0.1,1.4c0,0.2,0,0.7,0,1.4s0,1.1,0,1.2c0,0.8,0.1,1.5,0.4,2.1c0.3,0.5,0.7,0.8,1.2,0.8c0.5,0,0.9-0.3,1.2-0.8
			c0.3-0.6,0.4-1.3,0.4-2.1c0-0.3,0-0.7,0-1.1C92.8,13.6,92.8,13.1,92.8,12.6z"/>
		<path d="M112.7,17.8c-0.5,0-0.7-0.2-0.8-0.3c-0.1-0.2-0.1-0.6-0.1-1.1l0-1.1V10c0-0.8-0.4-1.6-1.2-2.2c-0.8-0.6-1.8-0.9-2.9-0.9
			c-1.3,0-2.2,0.2-2.6,0.7c-0.4,0.4-0.8,0.9-0.9,1.3V7h-6v0.4l0.5,0c0.5,0,0.8,0.2,0.8,0.4c0.1,0.2,0.1,0.5,0.1,0.8l0,1v1.6h4.5v-2
			c0.1-0.4,0.3-0.7,0.5-1.1c0.2-0.3,0.6-0.5,1.2-0.5c0.9,0,1.3,0.6,1.3,1.8l0,1v4.8l0,1.1c0,0.6-0.1,1-0.2,1.2
			c-0.1,0.2-0.5,0.3-1,0.3v0.4h7.3v-0.4L112.7,17.8z M104.3,17.6c-0.1-0.2-0.2-0.6-0.2-1.2l0-0.5h-4.6l0,0.5c0,0.6,0,1-0.1,1.1
			s-0.4,0.3-0.8,0.3l-0.6,0v0.4h7.3v-0.4C104.8,17.8,104.5,17.7,104.3,17.6z"/>
		<path d="M125.5,14.7c-0.4,1.2-1.1,2.1-2.1,2.8c-1,0.7-2.1,1-3.4,1c-1.9,0-3.4-0.5-4.6-1.5c-1.2-1-1.8-2.5-1.8-4.3
			c0-1.7,0.6-3.1,1.9-4.2c1.2-1.1,2.7-1.6,4.4-1.6c1.8,0,3.2,0.5,4.1,1.5c1,1,1.4,2.3,1.4,3.7h-7.2c0,0.6,0,1.1,0.1,1.7
			c0.1,0.6,0.2,1.2,0.5,1.7c0.2,0.5,0.6,1,1,1.3c0.4,0.3,1,0.5,1.7,0.5c1,0,1.7-0.3,2.3-0.8c0.6-0.5,1-1.2,1.3-2L125.5,14.7z
			 M121.3,11.6c0-0.2,0-0.4,0-0.6c0-0.2,0-0.5,0-0.9c0-1-0.1-1.7-0.4-2.2c-0.2-0.5-0.6-0.7-1.2-0.7c-0.5,0-0.8,0.2-1,0.7
			c-0.2,0.5-0.3,1.2-0.4,2.2l0,1.5H121.3z"/>
		<path d="M126.5,16.1c0-0.6,0.2-1.2,0.7-1.6c0.5-0.4,1-0.7,1.6-0.7c0.6,0,1.2,0.2,1.7,0.6c0.5,0.4,0.7,1,0.7,1.6
			c0,0.6-0.2,1.2-0.7,1.6c-0.5,0.4-1,0.7-1.7,0.7c-0.6,0-1.2-0.2-1.6-0.7C126.7,17.3,126.5,16.7,126.5,16.1z"/>
	</g>
	<g>
		<path d="M99.7,14.6c0.1-0.1,0.3-0.3,0.5-0.4c0.2-0.1,0.3-0.3,0.4-0.3c0.2-0.2,0.4-0.4,0.4-0.5c0.1-0.1,0.1-0.3,0.1-0.5
			c0-0.2,0-0.3-0.1-0.4s-0.2-0.2-0.3-0.2c-0.1,0-0.2,0-0.3,0.1c-0.1,0.1-0.1,0.1-0.1,0.2c0,0.1,0.1,0.2,0.2,0.2c0.1,0,0.2,0,0.2,0.1
			c0.1,0.1,0.1,0.1,0.1,0.2c0,0.1,0,0.2-0.1,0.3c-0.1,0.1-0.2,0.1-0.3,0.1c-0.1,0-0.2,0-0.3-0.1c-0.1-0.1-0.1-0.2-0.1-0.3
			c0-0.1,0-0.3,0.1-0.4c0.1-0.1,0.2-0.2,0.3-0.2c0.1-0.1,0.2-0.1,0.3-0.1c0.1,0,0.2,0,0.3,0c0.3,0,0.5,0.1,0.7,0.2
			c0.2,0.1,0.3,0.3,0.3,0.5c0,0.1,0,0.3-0.1,0.4c-0.1,0.1-0.2,0.2-0.3,0.3c-0.1,0.1-0.3,0.1-0.5,0.2c-0.2,0.1-0.4,0.2-0.4,0.2v0
			c0.1,0,0.1,0,0.2,0c0.1,0,0.2,0,0.2,0h0.5c0.1,0,0.2,0,0.2,0c0,0,0.1-0.1,0.1-0.1c0,0,0-0.1,0.1-0.1c0,0,0-0.1,0-0.1h0l-0.2,1.1
			L99.7,14.6L99.7,14.6z"/>
		<path d="M103.4,14.2l0,0.2c0,0.1,0,0.1,0,0.1c0,0,0.1,0,0.1,0c0,0,0.1,0,0.1,0c0,0,0.1,0,0.1,0v0.1h-1.6v-0.1c0,0,0,0,0.1,0
			c0,0,0.1,0,0.1,0c0.1,0,0.1,0,0.1-0.1c0,0,0-0.1,0-0.1l0-0.2v-1.6l0-0.2c0-0.1,0-0.1,0-0.2c0,0-0.1-0.1-0.1-0.1
			c-0.1,0-0.1,0-0.2,0c-0.1,0-0.1,0-0.1,0v-0.1h1.3V14.2z"/>
	</g>
</g>
</svg>
