<?xml version="1.0" encoding="utf-8"?>
<!-- Generator: Adobe Illustrator 24.1.1, SVG Export Plug-In . SVG Version: 6.00 Build 0)  -->
<svg version="1.1" id="Layer_1" xmlns="http://www.w3.org/2000/svg" xmlns:xlink="http://www.w3.org/1999/xlink" x="0px" y="0px"
	 viewBox="0 0 441 57" style="enable-background:new 0 0 441 57;" xml:space="preserve">
<g>
	<g>
		<path d="M4.2,15.1H0v-1.7c1.4-0.4,2.9-1.1,4.4-2.1s3-2.2,4.4-3.6c1.4-1.3,2.6-2.7,3.5-4s1.7-2.5,2.2-3.5h1.8v12.4h8.1L23.5,15
			h-7.2v16.9l0.1,3.2c0,1.8,0.4,3.1,1.2,4c0.8,0.9,1.8,1.4,3,1.4c1.6,0,2.8-0.7,3.5-2s1.1-2.9,1.1-4.5h0.9c0,2.3-0.7,4.4-2,6.1
			c-1.4,1.8-4.3,2.6-8.8,2.6c-2.9,0-5.4-0.7-7.6-2.2s-3.3-3.6-3.3-6.3V15.1H4.2z"/>
		<path d="M50.5,20.6L49.2,17c-0.3-0.8-0.6-1.5-0.9-2.1s-0.7-0.9-1.4-1l-1.4-0.1v-1h19.1v1h-0.9c-0.3,0-0.8,0.1-1.4,0.2
			c-0.6,0.1-0.9,0.6-0.9,1.5c0,0.3,0,0.6,0.1,0.9c0,0.3,0.3,1.1,0.7,2.3c0.4,1.3,1,3.1,1.9,5.6c0.9,2.5,1.6,4.5,2.1,5.9L70.5,19
			c0.5-1.6,0.8-2.8,0.8-3.5c0-0.6-0.1-1-0.4-1.2s-0.7-0.3-1.2-0.4c-0.5-0.1-0.9-0.1-1.3-0.2c-0.4,0-0.7,0-1,0v-1h10.5v1l-2.3,0.2
			c-1.3,0.2-2.4,1.6-3.5,4.3l-9.2,24.2h-4.5L51.2,22l-8,20.4h-4.4c-0.6-1.8-1.3-3.6-1.9-5.5c-0.7-1.9-1.9-5.2-3.6-10.1
			s-2.9-8-3.4-9.5c-0.6-1.5-1-2.4-1.2-2.7c-0.2-0.4-0.6-0.6-1.1-0.7c-0.5-0.1-1-0.2-1.5-0.2s-0.9,0-1.3,0v-1h19.3v1h-0.4
			c-0.2,0-0.5,0.1-1.1,0.2c-0.6,0.1-0.8,0.6-0.8,1.5c0,0.3,0,0.6,0.1,0.9c0,0.3,0.2,0.9,0.6,2c0.3,1,0.9,2.7,1.7,5s1.6,4.7,2.5,7
			L50.5,20.6z"/>
		<path d="M108.2,32.9c-1.2,3.1-3,5.6-5.6,7.3c-2.6,1.8-5.6,2.6-9.1,2.6c-4.9,0-8.9-1.4-12.1-4.1c-3.2-2.7-4.7-6.5-4.7-11.3
			c0-4.5,1.6-8.2,4.9-11.1S88.8,12,93.4,12c4.8,0,8.4,1.4,11,4.1c2.5,2.7,3.8,6,3.8,9.9H89.1c0,1.5,0.1,3,0.3,4.6
			c0.2,1.6,0.7,3.1,1.3,4.5c0.6,1.5,1.5,2.6,2.7,3.5s2.6,1.3,4.4,1.3c2.5,0,4.6-0.7,6-2.1c1.5-1.4,2.6-3.2,3.4-5.4L108.2,32.9z
			 M97.2,24.8c0-0.5-0.1-1-0.1-1.6s0-1.4,0-2.4c0-2.5-0.3-4.5-0.9-5.8s-1.7-2-3.2-2c-1.3,0-2.2,0.6-2.8,1.9
			c-0.5,1.3-0.9,3.2-1.1,5.8l-0.1,4h8.2V24.8z"/>
		<path d="M133.4,21.8l-0.1-2.6c0-3.2-1.1-4.9-3.4-4.9c-1.4,0-2.5,0.5-3.1,1.4c-0.6,0.9-1.1,1.8-1.5,2.8v15.9l0.1,2.9
			c0,1.7,0.2,2.8,0.5,3.2c0.3,0.5,1.2,0.7,2.8,0.7v1h-19.4v-1l1.5-0.1c1.2-0.1,1.9-0.4,2.2-0.9c0.2-0.5,0.4-1.5,0.4-3l0.1-2.9V19.6
			l-0.1-2.6c-0.1-1-0.2-1.7-0.4-2.2s-0.9-0.8-2.2-0.9l-1.4-0.1v-1h15.9v4.7c0.5-1.2,1.3-2.3,2.5-3.5c1.2-1.2,3.5-1.8,6.9-1.8
			c3,0,5.5,0.8,7.7,2.5s3.2,3.6,3.2,5.9v14l0.1,2.9c0,1.5,0.1,2.5,0.4,3c0.3,0.5,1,0.8,2.2,0.9l1.4,0.1v1h-19.6v-1
			c1.5,0,2.4-0.2,2.7-0.7s0.5-1.5,0.5-3.2l0.1-2.9L133.4,21.8L133.4,21.8z"/>
		<path d="M153.5,15.1h-4.2v-1.7c1.4-0.4,2.9-1.1,4.4-2.1s3-2.2,4.4-3.6c1.4-1.3,2.6-2.7,3.5-4s1.7-2.5,2.2-3.5h1.8v12.4h8.1
			l-0.9,2.4h-7.2v16.9l0.1,3.2c0,1.8,0.4,3.1,1.2,4s1.8,1.4,3,1.4c1.6,0,2.8-0.7,3.5-2s1.1-2.9,1.1-4.5h0.9c0,2.3-0.7,4.4-2,6.1
			c-1.4,1.8-4.3,2.6-8.8,2.6c-2.9,0-5.4-0.7-7.6-2.2s-3.3-3.6-3.3-6.3V15.1H153.5z"/>
		<path d="M178.3,17c-0.5-1-0.9-1.8-1.2-2.2s-0.8-0.7-1.3-0.8l-2.4-0.2v-1h20.4v1h-0.9c-0.3,0-0.8,0.1-1.3,0.2
			c-0.5,0.1-0.8,0.5-0.8,1.3c0,0.3,0.1,0.8,0.2,1.3c0.2,0.5,0.3,1,0.5,1.5l4.9,11.6c0.4-1,1.1-2.6,2-4.9s1.6-4.2,2.2-5.8
			c0.5-1.6,0.8-2.7,0.8-3.4c0-0.5-0.1-0.9-0.3-1.1c-0.2-0.2-0.7-0.4-1.5-0.5l-2-0.1v-1h10.5v1c-0.2,0-0.5,0-0.8,0s-0.8,0.1-1.5,0.2
			c-0.7,0.1-1.3,0.5-1.8,1.1s-1.4,2.7-2.8,6.1c-1.4,3.4-2.8,7.1-4.4,11c-1.6,3.9-3.3,7.9-5.2,12s-3.7,7.3-5.4,9.3
			c-1.7,2.1-3.9,3.1-6.8,3.1c-1.7,0-3.2-0.6-4.6-1.7c-1.4-1.1-2.1-2.6-2.1-4.4c0-1.7,0.6-3.1,1.7-4.2s2.6-1.7,4.3-1.7
			c1.8,0,3.2,0.5,4.2,1.6c1,1,1.5,2.3,1.5,3.7s-0.4,2.6-1.2,3.4c-0.8,0.9-1.2,1.4-1.2,1.6c0.4,0,0.8-0.1,1.2-0.1
			c0.9-0.4,1.8-1.2,2.6-2.4s1.6-2.4,2.3-3.6c0.7-1.2,1.4-2.7,2.1-4.4c-0.9-2.2-2-4.8-3.4-8s-2.8-6.7-4.5-10.5
			C180.6,22,179.3,19.1,178.3,17z"/>
		<path d="M256,27.5c0,4.4-1.7,8.1-5,11s-7.3,4.4-11.8,4.4c-4.8,0-8.8-1.5-12-4.4s-4.8-6.6-4.8-11s1.6-8.1,4.9-11s7.2-4.4,11.9-4.4
			c4.6,0,8.6,1.5,11.9,4.4C254.3,19.4,256,23.1,256,27.5z M243.6,27.4c0-0.6,0-1.7-0.1-3.5s-0.1-2.8-0.1-3.1c0-2.2-0.3-4.1-1-5.5
			c-0.7-1.5-1.8-2.2-3.2-2.2c-1.3,0-2.3,0.8-3.1,2.3c-0.7,1.5-1.1,3.3-1.1,5.5c0,0.8,0,1.8-0.1,2.9s-0.1,2.4-0.2,3.7
			c0,0.6,0,1.8,0.1,3.6c0.1,1.8,0.1,2.9,0.1,3.1c0,2.2,0.3,4.1,1,5.5c0.7,1.5,1.7,2.2,3.1,2.2s2.4-0.7,3.1-2.2s1.1-3.3,1.1-5.5
			c0-0.8,0-1.8,0.1-3C243.4,30.1,243.5,28.8,243.6,27.4z"/>
		<path d="M296.2,41.2c-1.2-0.1-1.9-0.4-2.2-0.9c-0.3-0.5-0.4-1.5-0.4-3l-0.1-2.9v-14c0-2.2-1.1-4.2-3.2-5.9
			c-2.2-1.7-4.7-2.5-7.7-2.5c-3.4,0-5.7,0.6-6.9,1.8c-1.2,1.2-2,2.4-2.5,3.5v-4.7h-15.9v1l1.4,0.1c1.3,0.1,2.1,0.4,2.2,0.9
			c0.2,0.5,0.3,1.2,0.4,2.2l0.1,2.6v4.3h12v-5.3c0.4-1,0.9-1.9,1.5-2.8c0.6-0.9,1.6-1.4,3.1-1.4c2.3,0,3.4,1.6,3.4,4.9l0.1,2.6v12.7
			l-0.1,2.9c0,1.7-0.2,2.7-0.5,3.2s-1.2,0.7-2.7,0.7v1h19.3v-1L296.2,41.2z M274.1,40.6c-0.3-0.5-0.5-1.5-0.5-3.2V36h-12.1v1.4
			c0,1.5-0.1,2.5-0.4,3c-0.2,0.5-1,0.8-2.2,0.9l-1.5,0.1v1h19.4v-1C275.4,41.3,274.5,41,274.1,40.6z"/>
		<path d="M330.1,32.9c-1.2,3.1-3,5.6-5.6,7.3c-2.6,1.8-5.6,2.6-9.1,2.6c-4.9,0-8.9-1.4-12.1-4.1c-3.2-2.7-4.7-6.5-4.7-11.3
			c0-4.5,1.6-8.2,4.9-11.1s7.2-4.3,11.8-4.3c4.8,0,8.4,1.4,11,4.1c2.5,2.7,3.8,6,3.8,9.9H311c0,1.5,0.1,3,0.3,4.6
			c0.2,1.6,0.7,3.1,1.3,4.5c0.6,1.5,1.5,2.6,2.7,3.5s2.6,1.3,4.4,1.3c2.5,0,4.6-0.7,6-2.1c1.5-1.4,2.6-3.2,3.4-5.4L330.1,32.9z
			 M319.1,24.8c0-0.5-0.1-1-0.1-1.6s0-1.4,0-2.4c0-2.5-0.3-4.5-0.9-5.8s-1.7-2-3.2-2c-1.3,0-2.2,0.6-2.8,1.9
			c-0.5,1.3-0.9,3.2-1.1,5.8l-0.1,4h8.2V24.8z"/>
		<path d="M332.9,36.7c0-1.7,0.6-3.1,1.8-4.2c1.2-1.2,2.7-1.7,4.4-1.7c1.7,0,3.2,0.6,4.4,1.7c1.2,1.1,1.8,2.6,1.8,4.3
			s-0.6,3.1-1.8,4.3c-1.2,1.2-2.7,1.7-4.4,1.7c-1.7,0-3.2-0.6-4.4-1.7C333.5,39.9,332.9,38.4,332.9,36.7z"/>
	</g>
	<g>
		<path d="M261.8,32.7c0.4-0.4,0.8-0.7,1.2-1.1c0.4-0.4,0.7-0.7,0.9-0.9c0.6-0.5,0.9-1,1.1-1.4s0.3-0.8,0.3-1.3s-0.1-0.9-0.3-1.2
			c-0.2-0.3-0.5-0.4-0.9-0.4c-0.3,0-0.5,0.1-0.8,0.2c-0.2,0.2-0.4,0.3-0.4,0.5c0,0.3,0.2,0.4,0.5,0.4c0.2,0,0.4,0.1,0.5,0.2
			s0.2,0.3,0.2,0.5c0,0.3-0.1,0.5-0.3,0.7c-0.2,0.2-0.4,0.3-0.7,0.3c-0.3,0-0.6-0.1-0.8-0.3c-0.2-0.2-0.3-0.4-0.3-0.8s0.1-0.7,0.4-1
			c0.2-0.3,0.5-0.5,0.8-0.7c0.3-0.1,0.6-0.2,0.8-0.3c0.2,0,0.5-0.1,0.8-0.1c0.7,0,1.3,0.2,1.8,0.5s0.8,0.8,0.8,1.4
			c0,0.4-0.1,0.7-0.4,1c-0.2,0.3-0.5,0.5-0.8,0.7s-0.7,0.3-1.3,0.6c-0.6,0.2-0.9,0.4-1,0.5l0,0c0.1,0,0.3,0,0.5,0s0.4,0,0.6,0h1.4
			c0.3,0,0.5,0,0.6-0.1s0.2-0.2,0.3-0.3c0.1-0.1,0.1-0.3,0.1-0.4s0.1-0.2,0.1-0.3h0.1l-0.6,3L261.8,32.7L261.8,32.7z"/>
		<path d="M271.6,31.7v0.4c0,0.2,0.1,0.3,0.1,0.4c0.1,0.1,0.2,0.1,0.3,0.1c0.1,0,0.2,0,0.3,0c0.1,0,0.2,0,0.3,0v0.1h-4.2v-0.1
			c0.1,0,0.1,0,0.2,0s0.2,0,0.3,0c0.2,0,0.3-0.1,0.3-0.1c0.1-0.1,0.1-0.2,0.1-0.4v-0.4v-4.2v-0.4c0-0.2-0.1-0.3-0.1-0.4
			c-0.1-0.1-0.2-0.1-0.3-0.2c-0.1,0-0.3,0-0.4,0s-0.2,0-0.3,0v-0.1h3.3v5.3C271.5,31.7,271.6,31.7,271.6,31.7z"/>
	</g>
</g>
</svg>
